# xmcd
#
# Track frame offsets:
#	150
#	19932
#	36649
#	50341
#	66670
#	83122
#	100146
#	114208
#	131243
#	146833
#	158093
#	172371
#	188935
#	204429
#	221534
#	236877
#	249437
#	265451
#
# Disc length: 3726 seconds
#
# Revision: 1
# Processed by: cddbd v1.5.2PL0 Copyright (c) Steve Scherf et al.
# Submitted via: audiograbber 1.83.01
#
DISCID=1a0e8c12
DTITLE=Various Artist - Nu Country Traxx 012
DYEAR=2000
DGENRE=Country
TTITLE0=Damon Gray and Joanie Keller - The Way Back Home
TTITLE1=Shedaisy - I Will But
TTITLE2=Brooks and Dunn - You'll Always Be Loved By Me
TTITLE3=Kathy Mattea - Trouble With Angels
TTITLE4=Rascal Flatts - Prayin' For Daylight
TTITLE5=Claire Lynch - Jealousy
TTITLE6=Randy Travis - A Little Left Of Center
TTITLE7=Judds - Stuck In Love
TTITLE8=Marty Raybon - Cracker Jack Diamond
TTITLE9=George Jones - Sinners and Saints
TTITLE10=Jeff Foxworthy and Bill Engvall Ft Marty Stuart - Blue Collar Dollar
TTITLE11=Mark Wills - Almost Doesn't Count
TTITLE12=Lace - Kiss 'Em All
TTITLE13=Steve Holy - Blue Moon
TTITLE14=Chad Brock - Yes!
TTITLE15=Danni Leigh - Honey I Do
TTITLE16=Kinleys - She Ain't The Girl For You
TTITLE17=Charlie Robison - Poor Man's Son
EXTD=
EXTT0=
EXTT1=
EXTT2=
EXTT3=
EXTT4=
EXTT5=
EXTT6=
EXTT7=
EXTT8=
EXTT9=
EXTT10=
EXTT11=
EXTT12=
EXTT13=
EXTT14=
EXTT15=
EXTT16=
EXTT17=
PLAYORDER=
